<svg width="812" height="279" viewBox="0 0 812 279" fill="none" xmlns="http://www.w3.org/2000/svg">
<g clip-path="url(#clip0_1_575)">
<path d="M312.999 163.623C312.999 171.091 312.715 177.751 312.141 183.602C312.071 184.335 311.591 184.953 310.91 185.237C304.982 187.737 297.337 188.987 287.976 188.987C281.316 188.987 276.001 188.381 272.017 187.175C268.041 185.97 264.84 184.126 262.429 181.652C259.834 178.767 258.187 174.077 257.479 167.594C257.246 165.176 257.126 161.818 257.126 157.519V62.7976C257.126 61.6992 256.236 60.8154 255.144 60.8154H219.951C218.853 60.8154 217.969 61.7055 217.969 62.7976V161.054C217.969 169.247 218.411 176.286 219.294 182.182C219.945 186.014 220.708 189.139 221.592 191.55C223.77 197.913 226.952 203.014 231.137 206.839C241.212 215.854 257.656 220.361 280.464 220.361C308.549 220.361 331.628 215.664 349.694 206.277C350.294 205.968 350.692 205.375 350.749 204.699C351.563 195.862 351.973 186.26 351.973 175.895V62.7976C351.973 61.6992 351.083 60.8154 349.991 60.8154H314.975C313.877 60.8154 312.993 61.7055 312.993 62.7976V163.617L312.999 163.623Z" fill="#AA0000"/>
<path d="M456.252 190.231C449.649 190.231 444.895 188.83 441.973 186.033C439.056 183.237 437.598 178.565 437.598 172.019V92.5872C437.598 91.4888 438.488 90.605 439.58 90.605H467.261C468.359 90.605 469.243 89.7149 469.243 88.6228V62.7979C469.243 61.6995 468.353 60.8157 467.261 60.8157H439.58C438.482 60.8157 437.598 59.9256 437.598 58.8335V18.6852C437.598 17.4605 436.506 16.5326 435.294 16.7283L400.101 22.4475C399.141 22.6053 398.434 23.4323 398.434 24.4044V58.8335C398.434 59.9319 397.544 60.8157 396.452 60.8157H374.699C373.601 60.8157 372.717 61.7058 372.717 62.7979V88.6228C372.717 89.7212 373.607 90.605 374.699 90.605H396.452C397.551 90.605 398.434 91.4951 398.434 92.5872V175.996C398.434 191.14 402.203 202.326 409.747 209.541C417.29 216.763 429.221 220.367 445.546 220.367C453.013 220.367 461.39 219.559 470.683 217.95C471.711 217.773 472.425 216.82 472.311 215.784L469.71 191.594C469.597 190.534 468.662 189.757 467.596 189.833C463.77 190.092 459.983 190.225 456.246 190.225L456.252 190.231Z" fill="#AA0000"/>
<path d="M530.034 175.289V1.98217C530.034 0.883768 529.144 0 528.052 0H492.682C491.583 0 490.7 0.890081 490.7 1.98217V178.206C490.7 188.811 491.994 197.945 494.588 205.609C496.962 212.565 500.554 218.985 505.364 224.856C505.932 225.55 506.917 225.765 507.731 225.38L538.871 210.766C539.97 210.248 540.349 208.872 539.667 207.862C536.409 203.046 534.023 198.318 532.515 193.678C530.861 188.552 530.04 182.422 530.04 175.289H530.034Z" fill="#AA0000"/>
<path d="M678.33 74.3433C667.958 64.1484 650.839 58.9342 626.97 58.6943C613.594 58.6943 602.452 60.2094 593.558 63.2457C584.657 66.2821 577.442 71.1302 571.899 77.79C566.357 84.4499 562.38 92.7573 559.968 102.719C557.55 112.857 556.345 125.116 556.345 139.49C556.345 149.331 556.963 158.144 558.201 165.921C559.438 173.761 561.591 181.121 564.652 188.021C567.714 194.915 571.779 200.722 576.848 205.438C587.693 215.399 603.311 220.38 623.701 220.38C644.09 220.38 666.879 218.473 690.69 214.673C691.738 214.509 692.47 213.543 692.35 212.489L689.51 186.752C689.39 185.654 688.392 184.871 687.294 185.004C665.882 187.611 647.632 188.911 632.538 188.911C620.986 188.911 612.148 186.91 606.019 182.902C599.971 178.798 596.455 171.293 595.477 160.391C595.376 159.267 596.228 158.282 597.352 158.226L621.22 157.001C632.532 156.414 645.643 155.353 660.554 153.819C674.296 152.431 685.52 150.96 694.219 149.413C695.115 149.255 695.791 148.51 695.854 147.608C696.125 143.883 696.264 140.178 696.264 136.497C696.264 121.997 695.027 109.947 692.552 100.345C689.958 89.7967 685.217 81.1357 678.324 74.356L678.33 74.3433ZM656.779 125.413C656.697 126.347 655.983 127.098 655.055 127.218C644.955 128.48 633.681 129.446 621.226 130.115L596.266 131.34C595.123 131.397 594.176 130.475 594.183 129.333C594.227 124.522 594.429 120.571 594.795 117.471C595.268 113.286 596.121 109.429 597.358 105.894C598.652 102.005 600.508 98.9121 602.926 96.6143C608.171 91.3685 616.182 88.7488 626.97 88.7488C637.759 88.7488 645.227 91.3433 649.911 96.5259C654.595 101.715 656.937 109.782 656.937 120.747C656.937 122.61 656.886 124.163 656.779 125.413Z" fill="#AA0000"/>
<path d="M808.269 191.601C808.156 190.54 807.222 189.764 806.155 189.84C802.329 190.098 798.542 190.231 794.805 190.231C788.202 190.231 783.448 188.83 780.525 186.033C777.609 183.237 776.151 178.565 776.151 172.019V92.5872C776.151 91.4888 777.041 90.605 778.133 90.605H805.814C806.912 90.605 807.796 89.7149 807.796 88.6228V62.7979C807.796 61.6995 806.906 60.8157 805.814 60.8157H778.133C777.035 60.8157 776.151 59.9256 776.151 58.8335V18.6852C776.151 17.4605 775.059 16.5326 773.847 16.7283L738.654 22.4475C737.694 22.6053 736.987 23.4323 736.987 24.4044V58.8335C736.987 59.9319 736.097 60.8157 735.005 60.8157H713.252C712.153 60.8157 711.27 61.7058 711.27 62.7979V88.6228C711.27 89.7212 712.16 90.605 713.252 90.605H735.005C736.103 90.605 736.987 91.4951 736.987 92.5872V175.996C736.987 191.14 740.756 202.326 748.299 209.541C755.843 216.763 767.774 220.367 784.098 220.367C791.566 220.367 799.943 219.559 809.235 217.95C810.264 217.773 810.978 216.82 810.864 215.784L808.263 191.594L808.269 191.601Z" fill="#AA0000"/>
<path fill-rule="evenodd" clip-rule="evenodd" d="M183.817 157.608H199.852C203.892 157.608 206.196 152.993 203.766 149.761L187.643 128.343H187.637L163.674 96.5016C161.736 93.926 157.873 93.8945 155.891 96.4385L135.4 122.781L114.461 149.698C111.955 152.918 114.252 157.608 118.324 157.608H130.376C129.395 160.155 128.244 162.467 126.922 164.545C123.784 169.64 119.656 173.206 114.524 175.239C109.392 177.278 102.479 178.294 93.7804 178.294C85.0816 178.294 78.4471 177.316 73.1571 175.359C67.8671 173.402 63.7323 170.069 60.7591 165.372C57.7038 160.518 55.5448 153.934 54.2949 145.626C53.0387 137.325 52.4138 126.392 52.4138 112.839C52.4138 95.2137 53.55 81.812 55.8226 72.6461C57.0725 67.6338 58.7201 63.6001 60.7591 60.5447C63.7323 55.7661 67.8482 52.3762 73.1003 50.3814C78.3461 48.3803 85.2458 47.3829 93.7804 47.3829C102.315 47.3829 109.392 48.4245 114.524 50.495C119.656 52.5719 123.791 56.1575 126.922 61.2454C130.211 66.4155 132.445 73.0374 133.619 81.105C134.459 86.3634 135.021 92.8528 135.292 100.579C135.349 102.208 137.407 102.877 138.404 101.596L155.916 79.0849C157.898 76.5409 161.755 76.5662 163.699 79.1481L184.461 106.728C185.478 108.079 187.63 107.328 187.599 105.636C187.239 88.9768 185.604 74.8176 182.688 63.1834C179.354 49.9016 173.97 38.9555 166.527 30.3388C159.16 21.64 149.584 15.3147 137.792 11.3567C126 7.3987 111.33 5.42285 93.7804 5.42285C72.7026 5.58067 55.7216 8.45923 42.8375 14.0585C29.9471 19.6641 20.0174 28.767 13.0482 41.3796C4.3494 58.0008 0 81.8183 0 112.845C0 132.982 1.66022 149.704 4.99329 163.024C8.32005 176.344 13.711 187.309 21.1536 195.932C28.5962 204.548 38.1535 210.779 49.8256 214.617C61.4976 218.455 76.1493 220.374 93.7741 220.374C111.399 220.374 125.975 218.392 137.723 214.44C149.477 210.482 159.072 204.201 166.515 195.578C174.033 186.728 179.443 175.681 182.732 162.437C183.116 160.87 183.478 159.261 183.817 157.608Z" fill="#AA0000"/>
<path d="M608.6 265.484V241.212H613.177V249.822C614.755 249.431 616.321 249.229 617.874 249.229C619.225 249.229 620.399 249.349 621.384 249.582C622.368 249.816 623.246 250.201 624.01 250.725C625.14 251.52 625.96 252.682 626.472 254.21C626.989 255.737 627.254 257.757 627.267 260.263C627.267 262.397 627.078 264.165 626.699 265.572C626.32 266.98 625.714 268.104 624.887 268.962C624.066 269.808 623.037 270.414 621.794 270.787C620.563 271.14 619.042 271.317 617.23 271.317C615.721 271.317 614.219 271.165 612.71 270.856C611.239 270.559 609.926 270.086 608.771 269.429C608.651 268.123 608.588 266.81 608.588 265.478L608.6 265.484ZM613.177 253.383V264.177C613.177 265.263 613.221 266.229 613.31 267.062C613.758 267.296 614.345 267.479 615.058 267.605C615.784 267.725 616.51 267.788 617.23 267.788C618.303 267.788 619.218 267.63 619.982 267.302C620.569 267.05 621.112 266.608 621.598 265.964C621.914 265.528 622.173 264.865 622.368 263.982C622.45 263.628 622.507 263.23 622.539 262.795C622.57 262.334 622.596 261.924 622.608 261.564C622.627 261.078 622.633 260.649 622.633 260.257C622.633 258.426 622.551 257.12 622.381 256.331C622.091 254.967 621.44 254.02 620.424 253.477C619.547 253.004 618.335 252.764 616.788 252.764C615.563 252.764 614.358 252.966 613.165 253.37L613.177 253.383Z" fill="#AA0000"/>
<path d="M628.246 249.519H633.1L639.009 263.893L643.611 249.519H648.263L638.251 278.948H633.599L636.932 269.574L628.246 249.513V249.519Z" fill="#AA0000"/>
<path d="M667.434 267.22C668.779 267.22 669.865 267.068 670.685 266.772C671.38 266.513 671.897 266.103 672.245 265.534C672.592 264.966 672.769 264.19 672.788 263.199C672.788 262.006 672.421 261.097 671.689 260.472C671.254 260.08 670.717 259.752 670.073 259.506C669.701 259.354 669.038 259.127 668.078 258.83C667.788 258.748 667.636 258.704 667.63 258.698C666.791 258.439 666.115 258.218 665.591 258.035C664.947 257.801 664.366 257.562 663.855 257.322C663.224 257.025 662.725 256.741 662.359 256.476C661.393 255.762 660.718 254.98 660.345 254.134C659.884 253.092 659.657 251.874 659.657 250.46C659.657 248.156 660.206 246.376 661.311 245.119C661.835 244.526 662.511 244.04 663.338 243.661C664.865 242.954 666.948 242.601 669.581 242.601C672.213 242.601 674.744 242.866 677.345 243.396L676.91 247.177C674.448 246.805 672.447 246.622 670.906 246.622C670.496 246.622 670.212 246.622 670.048 246.634C669.814 246.634 669.511 246.647 669.139 246.672C668.52 246.71 667.902 246.805 667.277 246.95C666.715 247.07 666.178 247.303 665.673 247.651C664.922 248.156 664.55 248.926 664.55 249.948C664.55 251.299 664.954 252.303 665.768 252.953C666.304 253.383 667.251 253.78 668.596 254.159C668.912 254.247 669.246 254.342 669.612 254.437L670.18 254.595C672.295 255.169 673.93 255.863 675.085 256.684C676.045 257.366 676.739 258.212 677.181 259.222C677.623 260.225 677.844 261.507 677.863 263.06C677.863 266.039 676.967 268.179 675.167 269.473C673.463 270.704 670.925 271.323 667.561 271.323C664.89 271.323 662.271 271.058 659.708 270.528L660.181 266.639C662.921 267.03 665.339 267.232 667.441 267.232L667.434 267.22Z" fill="#AA0000"/>
<path d="M686.094 259.032L694.2 249.513H699.414L690.551 259.537L699.9 271.02H694.332L686.094 260.44V271.02H681.53V241.199H686.094V259.026V259.032Z" fill="#AA0000"/>
<path d="M701.402 249.519H706.257L712.165 263.893L716.767 249.519H721.42L711.408 278.948H706.755L710.089 269.574L701.402 249.513V249.519Z" fill="#AA0000"/>
<path d="M736.167 267.719L736.514 271.002C735.239 271.21 734.159 271.317 733.263 271.317C731.11 271.317 729.538 270.844 728.547 269.891C727.55 268.944 727.057 267.46 727.057 265.447V252.922H723.421V249.514H727.057V244.186L731.659 243.435V249.507H736.129V252.916H731.659V265.055C731.659 266.078 731.88 266.785 732.322 267.183C732.764 267.58 733.503 267.776 734.532 267.776C734.948 267.776 735.491 267.757 736.16 267.713L736.167 267.719Z" fill="#AA0000"/>
<path d="M746.86 262.391L743.066 262.561C743.161 264.139 743.546 265.332 744.215 266.147C744.714 266.702 745.339 267.1 746.083 267.334C746.835 267.567 747.737 267.681 748.798 267.674C751.026 267.674 753.602 267.491 756.518 267.119L756.903 270.534C753.621 271.058 750.521 271.317 747.617 271.317C746.241 271.317 745.017 271.14 743.937 270.78C742.858 270.42 741.98 269.922 741.286 269.278C740.591 268.628 740.042 267.832 739.632 266.898C738.881 265.194 738.508 262.978 738.508 260.27C738.508 258.25 738.672 256.564 739.001 255.213C739.329 253.862 739.865 252.739 740.604 251.836C741.355 250.927 742.334 250.264 743.546 249.848C744.758 249.431 746.267 249.223 748.078 249.223C751.272 249.223 753.589 249.93 755.022 251.337C755.956 252.253 756.6 253.421 756.954 254.841C757.301 256.167 757.471 257.795 757.471 259.721C757.471 260.282 757.452 260.813 757.408 261.318C756.209 261.532 754.523 261.753 752.346 261.968C750.117 262.195 748.28 262.334 746.841 262.391H746.86ZM742.952 259.43L747.277 259.222C749.372 259.127 751.222 258.963 752.832 258.736C752.863 258.509 752.882 258.174 752.882 257.732C752.882 256.028 752.516 254.759 751.784 253.926C751.058 253.086 749.833 252.669 748.103 252.669C746.241 252.669 744.935 253.149 744.177 254.109C743.685 254.715 743.356 255.472 743.186 256.394C743.034 257.208 742.959 258.218 742.959 259.424L742.952 259.43Z" fill="#AA0000"/>
<path d="M768.5 271.317C765.659 271.317 763.595 270.768 762.307 269.663C761.032 268.558 760.4 266.879 760.4 264.613C760.4 262.65 760.868 261.109 761.796 259.998C762.723 258.887 764.188 258.18 766.183 257.871C767.742 257.637 770.286 257.448 773.802 257.303C773.802 255.763 773.436 254.633 772.71 253.907C771.984 253.181 770.823 252.821 769.226 252.821C767.098 252.821 764.611 253.004 761.751 253.364L761.379 250.005C764.542 249.481 767.306 249.223 769.661 249.223C771.725 249.223 773.411 249.494 774.736 250.031C775.475 250.321 776.106 250.725 776.63 251.236C777.741 252.328 778.297 253.919 778.297 255.996V265.478C778.297 266.803 778.234 268.123 778.114 269.429C775.873 270.686 772.672 271.311 768.5 271.311V271.317ZM773.802 264.266V260.301C773.802 260.301 773.733 260.301 773.663 260.301C773.594 260.301 773.493 260.308 773.367 260.314C773.24 260.314 773.114 260.314 772.994 260.314L772.098 260.352L771.277 260.402C770.936 260.409 770.64 260.428 770.368 260.465C770.305 260.465 770.033 260.491 769.56 260.548C769.061 260.598 768.525 260.686 767.957 260.813C766.808 261.078 766.006 261.463 765.564 261.962C765.135 262.46 764.927 263.319 764.927 264.537C764.927 265.856 765.293 266.753 766.025 267.233C766.707 267.668 767.761 267.883 769.175 267.883C771.132 267.883 772.628 267.637 773.67 267.144C773.758 266.305 773.802 265.345 773.802 264.259V264.266Z" fill="#AA0000"/>
<path d="M799.728 257.233V271.026H795.139V257.732C795.139 256.855 795.082 256.135 794.956 255.573C794.829 255.011 794.621 254.525 794.318 254.102C793.731 253.275 792.588 252.859 790.89 252.859C790.36 252.859 789.773 252.928 789.129 253.067C788.51 253.193 787.999 253.364 787.595 253.572C787.507 254.412 787.462 255.371 787.462 256.457V271.02H782.886V255.056C782.886 253.73 782.949 252.411 783.069 251.104C784.262 250.523 785.632 250.069 787.185 249.74C788.744 249.393 790.36 249.223 792.014 249.223C794.331 249.223 796.111 249.671 797.354 250.574C799.576 249.671 801.887 249.223 804.286 249.223C807.057 249.254 809.007 249.854 810.144 251.009C810.876 251.741 811.375 252.657 811.64 253.749C811.88 254.683 812 255.845 812 257.227V271.02H807.41V257.726C807.41 256.848 807.347 256.129 807.227 255.567C807.107 255.005 806.893 254.519 806.59 254.096C806.003 253.269 804.86 252.852 803.162 252.852C802.625 252.852 801.994 252.934 801.281 253.092C800.612 253.244 799.98 253.477 799.387 253.793C799.621 254.74 799.734 255.889 799.734 257.221L799.728 257.233Z" fill="#AA0000"/>
</g>
<defs>
<clipPath id="clip0_1_575">
<rect width="812" height="278.949" fill="white"/>
</clipPath>
</defs>
</svg>
