<svg width="365" height="126" viewBox="0 0 365 126" fill="none" xmlns="http://www.w3.org/2000/svg">
<g clip-path="url(#clip0_1_600)">
<path d="M77.3239 64.9322H65.8317C65.338 64.9322 64.9691 64.4839 65.0656 63.9987C65.0656 63.993 65.0656 63.9873 65.0684 63.9788C65.162 63.4964 64.7903 63.0452 64.2994 63.0452H61.0277C60.6361 63.0452 60.3041 63.3375 60.253 63.7263C60.1935 64.1803 60.131 64.6201 60.0629 65.0372C59.5351 68.6636 58.5306 71.6403 57.0523 73.9642C55.642 76.2542 53.7862 77.8574 51.4793 78.7711C49.1723 79.6876 46.0652 80.1445 42.155 80.1445C38.2448 80.1445 35.2625 79.7047 32.8846 78.825C30.5068 77.9454 28.6481 76.4471 27.3116 74.336C25.9383 72.1539 24.9678 69.1943 24.406 65.46C23.8413 61.7286 23.5604 56.8139 23.5604 50.7217C23.5604 42.7992 24.0711 36.775 25.0927 32.6548C25.6545 30.4018 26.3951 28.5886 27.3116 27.2152C28.6481 25.0672 30.4982 23.5434 32.8591 22.6467C35.2171 21.7472 38.3186 21.2989 42.155 21.2989C45.9914 21.2989 49.1723 21.7671 51.4793 22.6978C53.7862 23.6313 55.6448 25.2431 57.0523 27.5302C58.5306 29.8541 59.5351 32.8308 60.0629 36.4572C60.4403 38.8209 60.6929 41.7379 60.8149 45.2111C60.8404 45.9432 61.7655 46.244 62.2138 45.6679L70.0852 35.5492C70.9762 34.4056 72.71 34.417 73.584 35.5775L82.9167 47.9749C83.3736 48.5821 84.3412 48.2445 84.327 47.484C84.1653 39.9956 83.4303 33.631 82.1194 28.4013C80.6211 22.431 78.2007 17.5107 74.8552 13.6374C71.5437 9.72723 67.2392 6.88398 61.9386 5.10482C56.638 3.32566 50.0435 2.4375 42.155 2.4375C32.6803 2.50844 25.0473 3.80237 19.2558 6.3193C13.4615 8.83907 8.99795 12.9309 5.86527 18.6003C1.95509 26.0717 0 36.7778 0 50.7245C0 59.7764 0.746282 67.2931 2.24452 73.2804C3.73992 79.2677 6.16321 84.1965 9.50871 88.0727C12.8542 91.9459 17.1503 94.7466 22.397 96.4719C27.6436 98.1971 34.2297 99.0597 42.1522 99.0597C50.0747 99.0597 56.6266 98.1687 61.9073 96.3924C67.1909 94.6133 71.504 91.7899 74.8495 87.9137C78.2291 83.9355 80.6609 78.9697 82.1393 73.0165C82.8118 70.2754 83.331 67.2392 83.6999 63.9135C83.751 63.451 83.3849 63.0481 82.9224 63.0481H78.9498C78.5611 63.0481 78.2291 63.3318 78.1752 63.7178C78.1496 63.8994 78.1241 64.081 78.0957 64.2626C78.0361 64.6456 77.7098 64.9322 77.321 64.9322H77.3239Z" fill="white"/>
<path d="M140.695 73.5496C140.695 76.9065 140.568 79.9001 140.309 82.5306C140.278 82.8597 140.063 83.1378 139.756 83.2655C137.092 84.3892 133.655 84.951 129.447 84.951C126.454 84.951 124.064 84.6786 122.274 84.1366C120.486 83.5947 119.048 82.7661 117.964 81.6538C116.797 80.357 116.057 78.2487 115.739 75.3345C115.634 74.2477 115.58 72.7381 115.58 70.8057V28.2279C115.58 27.7342 115.18 27.3369 114.689 27.3369H98.8695C98.3758 27.3369 97.9785 27.737 97.9785 28.2279V72.3948C97.9785 76.0779 98.1771 79.2418 98.5744 81.8921C98.8667 83.6145 99.21 85.0191 99.6073 86.1031C100.586 88.9633 102.016 91.2561 103.898 92.9757C108.426 97.0277 115.818 99.0538 126.07 99.0538C138.695 99.0538 149.069 96.9426 157.19 92.7231C157.46 92.5841 157.639 92.3174 157.664 92.0137C158.03 88.0411 158.215 83.7252 158.215 79.0659V28.2279C158.215 27.7342 157.814 27.3369 157.324 27.3369H141.584C141.09 27.3369 140.693 27.737 140.693 28.2279V73.5468L140.695 73.5496Z" fill="white"/>
<path d="M205.088 85.5103C202.12 85.5103 199.983 84.8803 198.67 83.6233C197.359 82.3663 196.703 80.2664 196.703 77.3239V41.6187C196.703 41.1249 197.103 40.7277 197.594 40.7277H210.037C210.531 40.7277 210.928 40.3276 210.928 39.8367V28.2282C210.928 27.7344 210.528 27.3372 210.037 27.3372H197.594C197.1 27.3372 196.703 26.9371 196.703 26.4462V8.39921C196.703 7.84872 196.212 7.4316 195.667 7.51956L179.848 10.0904C179.417 10.1613 179.099 10.5331 179.099 10.9701V26.4462C179.099 26.9399 178.699 27.3372 178.208 27.3372H168.43C167.936 27.3372 167.539 27.7373 167.539 28.2282V39.8367C167.539 40.3304 167.939 40.7277 168.43 40.7277H178.208C178.702 40.7277 179.099 41.1278 179.099 41.6187V79.1115C179.099 85.9189 180.793 90.9471 184.184 94.1904C187.575 97.4366 192.938 99.0569 200.276 99.0569C203.633 99.0569 207.398 98.6936 211.575 97.9701C212.037 97.8906 212.358 97.4621 212.307 96.9968L211.138 86.1232C211.087 85.6465 210.667 85.2975 210.187 85.3315C208.468 85.4479 206.765 85.5074 205.085 85.5074L205.088 85.5103Z" fill="white"/>
<path d="M238.254 78.7937V0.890998C238.254 0.39726 237.854 0 237.363 0H221.464C220.97 0 220.573 0.400098 220.573 0.890998V80.1047C220.573 84.8718 221.155 88.9778 222.321 92.4226C223.388 95.5496 225.003 98.4354 227.165 101.074C227.42 101.387 227.863 101.483 228.229 101.31L242.227 94.7409C242.721 94.5082 242.891 93.8896 242.584 93.4356C241.12 91.2706 240.048 89.1452 239.369 87.0596C238.626 84.7555 238.257 82.0002 238.257 78.7937H238.254Z" fill="white"/>
<path d="M304.914 33.4181C300.252 28.8355 292.557 26.4916 281.828 26.3838C275.815 26.3838 270.807 27.0648 266.809 28.4297C262.808 29.7946 259.564 31.9738 257.073 34.9675C254.581 37.9611 252.794 41.6953 251.71 46.173C250.623 50.7302 250.081 56.2407 250.081 62.7019C250.081 67.1257 250.359 71.0869 250.915 74.5828C251.471 78.1071 252.439 81.4157 253.815 84.5172C255.192 87.6158 257.019 90.2264 259.297 92.346C264.172 96.8237 271.193 99.0626 280.358 99.0626C289.523 99.0626 299.767 98.2056 310.47 96.4974C310.941 96.4236 311.271 95.9895 311.217 95.5156L309.94 83.9468C309.886 83.4531 309.437 83.1012 308.944 83.1608C299.319 84.3327 291.115 84.9173 284.331 84.9173C279.138 84.9173 275.165 84.0177 272.41 82.2159C269.692 80.3715 268.111 76.9976 267.671 72.0971C267.626 71.592 268.009 71.1493 268.514 71.1238L279.243 70.5733C284.328 70.3094 290.221 69.8327 296.924 69.1432C303.101 68.5189 308.146 67.8578 312.057 67.1626C312.459 67.0916 312.763 66.7568 312.791 66.351C312.913 64.6768 312.976 63.0112 312.976 61.3569C312.976 54.839 312.42 49.4221 311.307 45.1061C310.141 40.3645 308.01 36.4714 304.912 33.4238L304.914 33.4181ZM295.227 56.3741C295.19 56.7941 294.869 57.1317 294.452 57.1857C289.912 57.7532 284.844 58.1873 279.246 58.4881L268.026 59.0386C267.512 59.0641 267.087 58.6498 267.089 58.1362C267.109 55.974 267.2 54.1977 267.365 52.8044C267.578 50.9231 267.961 49.1894 268.517 47.6003C269.098 45.8524 269.933 44.462 271.02 43.4291C273.378 41.0711 276.978 39.8935 281.828 39.8935C286.677 39.8935 290.034 41.0597 292.14 43.3894C294.245 45.7219 295.298 49.3483 295.298 54.2771C295.298 55.1142 295.275 55.8123 295.227 56.3741Z" fill="white"/>
<path d="M363.323 86.126C363.272 85.6493 362.852 85.3003 362.372 85.3344C360.653 85.4507 358.95 85.5103 357.27 85.5103C354.302 85.5103 352.166 84.8803 350.852 83.6233C349.541 82.3663 348.885 80.2664 348.885 77.3239V41.6187C348.885 41.1249 349.285 40.7277 349.776 40.7277H362.219C362.713 40.7277 363.11 40.3276 363.11 39.8367V28.2282C363.11 27.7344 362.71 27.3372 362.219 27.3372H349.776C349.283 27.3372 348.885 26.9371 348.885 26.4462V8.39921C348.885 7.84872 348.394 7.4316 347.85 7.51956L332.03 10.0904C331.599 10.1613 331.281 10.5331 331.281 10.9701V26.4462C331.281 26.9399 330.881 27.3372 330.39 27.3372H320.612C320.118 27.3372 319.721 27.7373 319.721 28.2282V39.8367C319.721 40.3304 320.121 40.7277 320.612 40.7277H330.39C330.884 40.7277 331.281 41.1278 331.281 41.6187V79.1115C331.281 85.9189 332.975 90.9471 336.366 94.1904C339.757 97.4366 345.12 99.0569 352.458 99.0569C355.815 99.0569 359.58 98.6936 363.757 97.9701C364.22 97.8906 364.54 97.4621 364.489 96.9968L363.32 86.1232L363.323 86.126Z" fill="white"/>
<path d="M84.3441 57.6909L73.5727 43.3782C72.7015 42.2205 70.9649 42.2063 70.0739 43.3498L60.8632 55.191L51.451 67.2905C50.3244 68.7376 51.3573 70.8459 53.1875 70.8459H65.2245C65.1195 71.4787 64.9947 72.1087 64.8585 72.7301H77.9823C78.0844 72.1058 78.1781 71.4787 78.2575 70.8459H89.8348C91.6509 70.8459 92.6866 68.7717 91.5941 67.3188L84.3469 57.6909H84.3441Z" fill="white"/>
<path d="M273.57 119.337V108.427H275.627V112.297C276.337 112.121 277.04 112.03 277.739 112.03C278.346 112.03 278.874 112.084 279.316 112.189C279.759 112.294 280.153 112.467 280.497 112.703C281.005 113.061 281.373 113.583 281.603 114.269C281.836 114.956 281.955 115.864 281.961 116.991C281.961 117.95 281.876 118.744 281.705 119.377C281.535 120.01 281.263 120.515 280.891 120.901C280.522 121.281 280.06 121.553 279.501 121.721C278.947 121.88 278.263 121.959 277.449 121.959C276.771 121.959 276.096 121.891 275.417 121.752C274.756 121.619 274.166 121.406 273.647 121.111C273.593 120.523 273.564 119.933 273.564 119.334L273.57 119.337ZM275.627 113.898V118.75C275.627 119.238 275.647 119.672 275.687 120.047C275.888 120.152 276.152 120.234 276.473 120.291C276.799 120.345 277.126 120.373 277.449 120.373C277.931 120.373 278.343 120.302 278.686 120.154C278.95 120.041 279.194 119.842 279.413 119.553C279.555 119.357 279.671 119.059 279.759 118.662C279.796 118.503 279.821 118.324 279.835 118.128C279.85 117.921 279.861 117.737 279.867 117.575C279.875 117.357 279.878 117.164 279.878 116.988C279.878 116.165 279.841 115.577 279.765 115.223C279.634 114.61 279.342 114.184 278.885 113.94C278.49 113.727 277.946 113.62 277.25 113.62C276.7 113.62 276.158 113.71 275.622 113.892L275.627 113.898Z" fill="white"/>
<path d="M282.401 112.161H284.583L287.239 118.622L289.308 112.161H291.399L286.898 125.39H284.807L286.305 121.176L282.401 112.158V112.161Z" fill="white"/>
<path d="M300.016 120.117C300.621 120.117 301.109 120.049 301.478 119.916C301.79 119.8 302.023 119.615 302.179 119.36C302.335 119.104 302.414 118.755 302.423 118.31C302.423 117.773 302.258 117.365 301.929 117.084C301.733 116.908 301.492 116.76 301.203 116.65C301.035 116.582 300.737 116.48 300.306 116.346C300.175 116.309 300.107 116.289 300.104 116.287C299.727 116.17 299.423 116.071 299.188 115.989C298.898 115.884 298.637 115.776 298.408 115.668C298.124 115.535 297.9 115.407 297.735 115.288C297.301 114.967 296.997 114.615 296.83 114.235C296.623 113.767 296.521 113.219 296.521 112.584C296.521 111.548 296.767 110.748 297.264 110.183C297.499 109.916 297.803 109.698 298.175 109.527C298.862 109.21 299.798 109.051 300.981 109.051C302.164 109.051 303.302 109.17 304.471 109.408L304.276 111.108C303.169 110.941 302.269 110.858 301.577 110.858C301.393 110.858 301.265 110.858 301.191 110.864C301.086 110.864 300.95 110.87 300.783 110.881C300.504 110.898 300.226 110.941 299.945 111.006C299.693 111.06 299.452 111.165 299.225 111.321C298.887 111.548 298.72 111.894 298.72 112.354C298.72 112.961 298.901 113.412 299.267 113.704C299.508 113.897 299.934 114.076 300.539 114.246C300.68 114.286 300.831 114.329 300.995 114.371L301.251 114.442C302.201 114.7 302.936 115.013 303.456 115.381C303.887 115.688 304.199 116.068 304.398 116.522C304.596 116.973 304.696 117.549 304.704 118.247C304.704 119.587 304.301 120.549 303.492 121.13C302.726 121.684 301.586 121.962 300.073 121.962C298.873 121.962 297.695 121.843 296.543 121.604L296.756 119.856C297.988 120.032 299.074 120.123 300.019 120.123L300.016 120.117Z" fill="white"/>
<path d="M308.405 116.437L312.048 112.158H314.392L310.408 116.664L314.61 121.826H312.108L308.405 117.07V121.826H306.353V108.421H308.405V116.434V116.437Z" fill="white"/>
<path d="M315.285 112.161H317.467L320.123 118.622L322.192 112.161H324.283L319.783 125.39H317.691L319.19 121.176L315.285 112.158V112.161Z" fill="white"/>
<path d="M330.912 120.342L331.068 121.817C330.495 121.911 330.01 121.959 329.607 121.959C328.639 121.959 327.933 121.747 327.487 121.318C327.039 120.892 326.818 120.226 326.818 119.32V113.691H325.183V112.158H326.818V109.763L328.886 109.426V112.156H330.895V113.688H328.886V119.144C328.886 119.604 328.985 119.922 329.184 120.101C329.383 120.28 329.715 120.367 330.177 120.367C330.365 120.367 330.609 120.359 330.909 120.339L330.912 120.342Z" fill="white"/>
<path d="M335.719 117.947L334.014 118.023C334.056 118.733 334.229 119.269 334.53 119.635C334.754 119.885 335.035 120.063 335.37 120.168C335.708 120.273 336.113 120.324 336.59 120.322C337.592 120.322 338.749 120.239 340.06 120.072L340.234 121.607C338.758 121.843 337.365 121.959 336.059 121.959C335.441 121.959 334.89 121.879 334.405 121.718C333.92 121.556 333.526 121.332 333.213 121.042C332.901 120.75 332.654 120.393 332.47 119.973C332.132 119.206 331.965 118.21 331.965 116.993C331.965 116.085 332.039 115.327 332.186 114.72C332.334 114.113 332.575 113.608 332.907 113.202C333.245 112.793 333.684 112.496 334.229 112.308C334.774 112.121 335.452 112.027 336.267 112.027C337.702 112.027 338.744 112.345 339.388 112.978C339.808 113.389 340.097 113.914 340.256 114.553C340.412 115.149 340.489 115.881 340.489 116.746C340.489 116.999 340.48 117.237 340.461 117.464C339.921 117.561 339.164 117.66 338.185 117.756C337.183 117.859 336.357 117.921 335.71 117.947H335.719ZM333.963 116.616L335.906 116.522C336.848 116.48 337.68 116.406 338.403 116.304C338.417 116.201 338.426 116.051 338.426 115.852C338.426 115.086 338.261 114.516 337.932 114.141C337.606 113.764 337.055 113.577 336.278 113.577C335.441 113.577 334.853 113.792 334.513 114.224C334.292 114.496 334.144 114.837 334.067 115.251C333.999 115.617 333.965 116.071 333.965 116.613L333.963 116.616Z" fill="white"/>
<path d="M345.446 121.959C344.169 121.959 343.241 121.712 342.663 121.215C342.089 120.719 341.806 119.964 341.806 118.945C341.806 118.063 342.016 117.37 342.433 116.871C342.85 116.372 343.508 116.054 344.405 115.915C345.106 115.81 346.249 115.725 347.83 115.659C347.83 114.967 347.665 114.459 347.339 114.133C347.013 113.807 346.491 113.645 345.773 113.645C344.816 113.645 343.698 113.727 342.413 113.889L342.246 112.379C343.667 112.144 344.91 112.027 345.968 112.027C346.896 112.027 347.654 112.149 348.25 112.391C348.582 112.521 348.866 112.703 349.101 112.933C349.601 113.423 349.85 114.139 349.85 115.072V119.334C349.85 119.93 349.822 120.523 349.768 121.11C348.761 121.675 347.322 121.956 345.446 121.956V121.959ZM347.83 118.789V117.007C347.83 117.007 347.799 117.007 347.767 117.007C347.736 117.007 347.691 117.01 347.634 117.013C347.577 117.013 347.521 117.013 347.467 117.013L347.064 117.03L346.695 117.053C346.542 117.056 346.408 117.064 346.286 117.081C346.258 117.081 346.136 117.092 345.923 117.118C345.699 117.141 345.458 117.18 345.202 117.237C344.686 117.356 344.325 117.529 344.127 117.754C343.934 117.978 343.84 118.364 343.84 118.911C343.84 119.504 344.005 119.907 344.334 120.123C344.64 120.319 345.114 120.415 345.75 120.415C346.63 120.415 347.302 120.305 347.77 120.083C347.81 119.706 347.83 119.275 347.83 118.786V118.789Z" fill="white"/>
<path d="M359.484 115.628V121.828H357.421V115.852C357.421 115.458 357.395 115.134 357.339 114.882C357.282 114.629 357.188 114.411 357.052 114.221C356.788 113.849 356.274 113.662 355.511 113.662C355.273 113.662 355.009 113.693 354.719 113.755C354.441 113.812 354.212 113.889 354.03 113.982C353.99 114.36 353.97 114.791 353.97 115.279V121.825H351.913V114.649C351.913 114.053 351.941 113.46 351.995 112.873C352.532 112.612 353.147 112.408 353.845 112.26C354.546 112.104 355.273 112.027 356.016 112.027C357.058 112.027 357.858 112.229 358.417 112.635C359.416 112.229 360.454 112.027 361.532 112.027C362.778 112.042 363.655 112.311 364.166 112.83C364.495 113.16 364.719 113.571 364.838 114.062C364.946 114.482 365 115.004 365 115.625V121.825H362.937V115.85C362.937 115.455 362.909 115.132 362.855 114.879C362.801 114.627 362.704 114.408 362.568 114.218C362.304 113.846 361.791 113.659 361.027 113.659C360.786 113.659 360.502 113.696 360.182 113.767C359.881 113.835 359.597 113.94 359.331 114.082C359.435 114.507 359.487 115.024 359.487 115.623L359.484 115.628Z" fill="white"/>
</g>
<defs>
<clipPath id="clip0_1_600">
<rect width="365" height="125.39" fill="white"/>
</clipPath>
</defs>
</svg>
